<svg width="21" height="22" viewBox="0 0 21 22" fill="none" xmlns="http://www.w3.org/2000/svg">
<path d="M20.8096 12.1039L18.0832 9.37799C17.9602 9.25496 17.7934 9.1866 17.6184 9.1866H17.1726C17.9274 8.22146 18.3758 7.00752 18.3758 5.68694C18.3758 2.54545 15.8299 0 12.6879 0C9.54589 0 7 2.54545 7 5.68694C7 8.82843 9.54589 11.3739 12.6879 11.3739C14.0087 11.3739 15.2229 10.9255 16.1882 10.1709V10.6165C16.1882 10.7915 16.2565 10.9583 16.3796 11.0813L19.106 13.8072C19.363 14.0643 19.7787 14.0643 20.033 13.8072L20.8069 13.0335C21.0639 12.7765 21.0639 12.3609 20.8096 12.1039ZM12.6879 9.1866C10.7546 9.1866 9.18766 7.62269 9.18766 5.68694C9.18766 3.75393 10.7518 2.18729 12.6879 2.18729C14.6213 2.18729 16.1882 3.7512 16.1882 5.68694C16.1882 7.61996 14.624 9.1866 12.6879 9.1866Z" fill="white"/>
<path d="M9 12.0962V12.25H6V9H6.14201C6.29119 9 6.43425 9.0642 6.53974 9.17847L8.83523 11.6653C8.94073 11.7795 8.99999 11.9345 9 12.0962ZM5.8125 13.0625C5.50313 13.0625 5.25 12.7883 5.25 12.4531V9H0.5625C0.251836 9 0 9.27282 0 9.60938V21.3906C0 21.7272 0.251836 22 0.5625 22H8.4375C8.74816 22 9 21.7272 9 21.3906V13.0625H5.8125ZM2.63777 13.4688C3.2591 13.4688 3.76277 14.0144 3.76277 14.6875C3.76277 15.3606 3.2591 15.9062 2.63777 15.9062C2.01645 15.9062 1.51277 15.3606 1.51277 14.6875C1.51277 14.0144 2.01647 13.4688 2.63777 13.4688ZM7.51277 19.5625H1.51277L1.52414 18.3314L2.45027 17.3281C2.5601 17.2091 2.72681 17.2215 2.83664 17.3404L3.76277 18.3438L6.18891 15.7154C6.29873 15.5965 6.47681 15.5965 6.58666 15.7154L7.51277 16.7188V19.5625Z" fill="white"/>
</svg>
