<svg width="25" height="20" viewBox="0 0 25 20" fill="none" xmlns="http://www.w3.org/2000/svg">
<rect width="25" height="20" rx="6" fill="white"/>
<path d="M5.48793 13.0923C5.25355 13.0923 5.05232 13.0095 4.88423 12.8438C4.71851 12.6757 4.63565 12.4744 4.63565 12.2401C4.63565 12.008 4.71851 11.8092 4.88423 11.6435C5.05232 11.4777 5.25355 11.3949 5.48793 11.3949C5.7152 11.3949 5.91406 11.4777 6.08452 11.6435C6.25497 11.8092 6.3402 12.008 6.3402 12.2401C6.3402 12.3963 6.29995 12.5395 6.21946 12.6697C6.14134 12.7976 6.03835 12.9006 5.91051 12.9787C5.78267 13.0545 5.64181 13.0923 5.48793 13.0923ZM10.0396 15.1591C9.54954 15.1591 9.12932 15.0916 8.77894 14.9567C8.43093 14.8241 8.15394 14.643 7.94798 14.4134C7.74201 14.1837 7.60825 13.9257 7.5467 13.6392L8.94585 13.451C8.98846 13.5599 9.05593 13.6617 9.14826 13.7564C9.24059 13.8511 9.36251 13.9268 9.51403 13.9837C9.66791 14.0429 9.85494 14.0724 10.0751 14.0724C10.4042 14.0724 10.6752 13.992 10.8883 13.831C11.1038 13.6723 11.2115 13.406 11.2115 13.032V12.0341H11.1475C11.0813 12.1856 10.9818 12.3288 10.8493 12.4638C10.7167 12.5987 10.5462 12.7088 10.3379 12.794C10.1296 12.8793 9.88098 12.9219 9.59215 12.9219C9.18259 12.9219 8.80972 12.8272 8.47354 12.6378C8.13974 12.446 7.8734 12.1536 7.67454 11.7607C7.47804 11.3653 7.37979 10.8658 7.37979 10.2621C7.37979 9.64418 7.48041 9.12808 7.68164 8.71378C7.88287 8.29948 8.15039 7.98935 8.4842 7.78338C8.82037 7.57741 9.18851 7.47443 9.5886 7.47443C9.894 7.47443 10.1497 7.52652 10.3556 7.63068C10.5616 7.73248 10.7273 7.86032 10.8528 8.0142C10.9806 8.16572 11.0789 8.31487 11.1475 8.46165H11.2044V7.54545H12.7065V13.0533C12.7065 13.5173 12.5929 13.9055 12.3656 14.218C12.1383 14.5305 11.8234 14.7649 11.421 14.9212C11.0209 15.0798 10.5604 15.1591 10.0396 15.1591ZM10.0716 11.7855C10.3154 11.7855 10.5214 11.7251 10.6895 11.6044C10.8599 11.4813 10.9901 11.3061 11.0801 11.0788C11.1724 10.8492 11.2186 10.5746 11.2186 10.255C11.2186 9.93537 11.1736 9.65838 11.0836 9.42401C10.9937 9.18726 10.8635 9.00379 10.693 8.87358C10.5225 8.74337 10.3154 8.67827 10.0716 8.67827C9.82298 8.67827 9.61346 8.74574 9.443 8.88068C9.27255 9.01326 9.14353 9.19792 9.05593 9.43466C8.96834 9.6714 8.92454 9.94484 8.92454 10.255C8.92454 10.5698 8.96834 10.8421 9.05593 11.0717C9.14589 11.299 9.27492 11.4754 9.443 11.6009C9.61346 11.724 9.82298 11.7855 10.0716 11.7855ZM13.9103 13V7.54545H15.4231V13H13.9103ZM14.6703 6.84233C14.4454 6.84233 14.2524 6.76776 14.0914 6.61861C13.9328 6.46709 13.8535 6.28598 13.8535 6.07528C13.8535 5.86695 13.9328 5.68821 14.0914 5.53906C14.2524 5.38755 14.4454 5.31179 14.6703 5.31179C14.8952 5.31179 15.0869 5.38755 15.2456 5.53906C15.4065 5.68821 15.487 5.86695 15.487 6.07528C15.487 6.28598 15.4065 6.46709 15.2456 6.61861C15.0869 6.76776 14.8952 6.84233 14.6703 6.84233ZM19.5682 7.54545V8.68182H16.2017V7.54545H19.5682ZM16.9723 13V7.15128C16.9723 6.75592 17.0492 6.42803 17.2031 6.16761C17.3594 5.9072 17.5724 5.71188 17.8423 5.58168C18.1122 5.45147 18.4188 5.38636 18.7621 5.38636C18.9941 5.38636 19.206 5.40412 19.3977 5.43963C19.5919 5.47514 19.7363 5.5071 19.831 5.53551L19.5611 6.67188C19.5019 6.65294 19.4285 6.63518 19.3409 6.61861C19.2557 6.60204 19.1681 6.59375 19.0781 6.59375C18.8556 6.59375 18.7005 6.64583 18.6129 6.75C18.5253 6.8518 18.4815 6.99503 18.4815 7.17969V13H16.9723Z" fill="#6067B9"/>
</svg>
