<svg width="26" height="21" viewBox="0 0 26 21" fill="none" xmlns="http://www.w3.org/2000/svg">
<path d="M9.02283 10.6182C10.0117 10.6182 10.9784 10.3249 11.8007 9.77551C12.6229 9.22611 13.2638 8.44521 13.6422 7.53158C14.0207 6.61795 14.1197 5.61262 13.9268 4.64271C13.7338 3.67281 13.2576 2.78189 12.5584 2.08263C11.8591 1.38337 10.9682 0.907166 9.99828 0.71424C9.02837 0.521314 8.02304 0.62033 7.10941 0.998769C6.19578 1.37721 5.41489 2.01807 4.86548 2.84032C4.31607 3.66256 4.02283 4.62926 4.02283 5.61817C4.02283 6.94425 4.54961 8.21602 5.48729 9.1537C6.42497 10.0914 7.69674 10.6182 9.02283 10.6182ZM12.7728 13.1182C12.7756 12.7006 12.8845 12.2907 13.0892 11.9268C12.9017 11.9072 12.7181 11.8682 12.5228 11.8682H11.8705C10.9776 12.2799 10.0061 12.4931 9.02283 12.4931C8.03959 12.4931 7.06804 12.2799 6.17517 11.8682H5.52283C4.13054 11.8685 2.79536 12.4217 1.81086 13.4062C0.826361 14.3907 0.273138 15.7259 0.272827 17.1182L0.272827 18.7432C0.272827 19.2404 0.470371 19.7174 0.822002 20.069C1.17363 20.4206 1.65055 20.6182 2.14783 20.6182H13.1205C12.8958 20.2397 12.7758 19.8083 12.7728 19.3682V13.1182ZM24.0228 11.8682H22.7728V8.74317C22.7728 7.91436 22.4436 7.11951 21.8575 6.53346C21.2715 5.94741 20.4766 5.61817 19.6478 5.61817C18.819 5.61817 18.0242 5.94741 17.4381 6.53346C16.8521 7.11951 16.5228 7.91436 16.5228 8.74317V11.8682H15.2728C14.9413 11.8682 14.6234 11.9999 14.3889 12.2343C14.1545 12.4687 14.0228 12.7866 14.0228 13.1182V19.3682C14.0228 19.6997 14.1545 20.0176 14.3889 20.252C14.6234 20.4865 14.9413 20.6182 15.2728 20.6182H24.0228C24.3543 20.6182 24.6723 20.4865 24.9067 20.252C25.1411 20.0176 25.2728 19.6997 25.2728 19.3682V13.1182C25.2728 12.7866 25.1411 12.4687 24.9067 12.2343C24.6723 11.9999 24.3543 11.8682 24.0228 11.8682ZM19.6478 17.4932C19.4006 17.4932 19.1589 17.4199 18.9534 17.2825C18.7478 17.1452 18.5876 16.9499 18.493 16.7215C18.3984 16.4931 18.3736 16.2418 18.4218 15.9993C18.4701 15.7568 18.5891 15.5341 18.7639 15.3593C18.9388 15.1845 19.1615 15.0654 19.404 15.0172C19.6464 14.969 19.8978 14.9937 20.1262 15.0883C20.3546 15.1829 20.5498 15.3431 20.6872 15.5487C20.8245 15.7543 20.8978 15.9959 20.8978 16.2432C20.8978 16.5747 20.7661 16.8926 20.5317 17.127C20.2973 17.3615 19.9793 17.4932 19.6478 17.4932ZM20.8978 11.8682H18.3978V8.74317C18.3978 8.41165 18.5295 8.0937 18.7639 7.85928C18.9984 7.62486 19.3163 7.49317 19.6478 7.49317C19.9793 7.49317 20.2973 7.62486 20.5317 7.85928C20.7661 8.0937 20.8978 8.41165 20.8978 8.74317V11.8682Z" fill="white"/>
</svg>
