<svg width="14" height="18" viewBox="0 0 14 18" fill="none" xmlns="http://www.w3.org/2000/svg">
<path d="M13.3636 6.75H12.7273C12.3757 6.75 12.0909 7.00172 12.0909 7.3125V9C12.0909 11.6297 9.52597 13.7398 6.49131 13.4782C3.84642 13.25 1.90909 11.1484 1.90909 8.79961V7.3125C1.90909 7.00172 1.62432 6.75 1.27273 6.75H0.636364C0.284773 6.75 0 7.00172 0 7.3125V8.72437C0 11.8758 2.54426 14.6851 6.04545 15.1119V16.3125H3.81818C3.46659 16.3125 3.18182 16.5642 3.18182 16.875V17.4375C3.18182 17.7483 3.46659 18 3.81818 18H10.1818C10.5334 18 10.8182 17.7483 10.8182 17.4375V16.875C10.8182 16.5642 10.5334 16.3125 10.1818 16.3125H7.95455V15.1253C11.3635 14.7118 14 12.1254 14 9V7.3125C14 7.00172 13.7152 6.75 13.3636 6.75ZM7 12.375C9.10875 12.375 10.8182 10.864 10.8182 9H7.42437C7.19011 9 7 8.87414 7 8.71875V8.15625C7 8.00086 7.19011 7.875 7.42437 7.875H10.8182V6.75H7.42437C7.19011 6.75 7 6.62414 7 6.46875V5.90625C7 5.75086 7.19011 5.625 7.42437 5.625H10.8182V4.5H7.42437C7.19011 4.5 7 4.37414 7 4.21875V3.65625C7 3.50086 7.19011 3.375 7.42437 3.375H10.8182C10.8182 1.51102 9.10875 0 7 0C4.89125 0 3.18182 1.51102 3.18182 3.375V9C3.18182 10.864 4.89125 12.375 7 12.375Z" fill="#201D32"/>
</svg>
