<svg width="25" height="20" viewBox="0 0 25 20" fill="none" xmlns="http://www.w3.org/2000/svg">
<path d="M24.7586 17.8945L18.6039 13.1379C19.0914 12.1957 19.375 11.132 19.375 9.99997V8.12497C19.375 7.77965 19.0953 7.49997 18.75 7.49997H18.125C17.7797 7.49997 17.5 7.77965 17.5 8.12497V9.99997C17.5 10.7 17.3453 11.3593 17.0812 11.9609L16.0441 11.1593C16.1652 10.7922 16.2504 10.4086 16.2504 10.0004H14.5445L12.9273 8.75036H16.25V7.50036H12.9168C12.6867 7.50036 12.5 7.36051 12.5 7.18786V6.56286C12.5 6.3902 12.6867 6.25036 12.9168 6.25036H16.25V5.00036H12.9168C12.6867 5.00036 12.5 4.86051 12.5 4.68786V4.06286C12.5 3.8902 12.6867 3.75036 12.9168 3.75036H16.25C16.25 1.67926 14.5711 0.000355991 12.5 0.000355991C10.4289 0.000355991 8.74997 1.67926 8.74997 3.75036V5.52223L1.77614 0.131606C1.50348 -0.0801128 1.11051 -0.0312846 0.898793 0.241372L0.131606 1.22848C-0.0801128 1.50075 -0.0312846 1.89332 0.241372 2.10543L23.2242 19.8683C23.4968 20.0804 23.8894 20.0312 24.1015 19.7586L24.8687 18.7714C25.08 18.4992 25.0312 18.1066 24.7586 17.8945V17.8945ZM15.625 18.125H13.4375V16.8054C13.8949 16.7422 14.3398 16.6382 14.764 16.4898L12.7953 14.9679C12.5332 14.9836 12.2714 15.0019 12.0004 14.9757C9.81872 14.7629 8.14332 13.0761 7.65739 10.9972L5.62497 9.42614V9.69372C5.62497 13.1953 8.12379 16.3168 11.5625 16.791V18.125H9.37497C9.02965 18.125 8.74997 18.4047 8.74997 18.75V19.375C8.74997 19.7203 9.02965 20 9.37497 20H15.625C15.9703 20 16.25 19.7203 16.25 19.375V18.75C16.25 18.4047 15.9703 18.125 15.625 18.125Z" fill="black"/>
</svg>
