<svg width="16" height="17" viewBox="0 0 16 17" fill="none" xmlns="http://www.w3.org/2000/svg">
<path d="M7.47334 0.103474L0.972065 2.73881C0.387576 2.97531 0 3.58346 0 4.25919V11.8645C0 12.4794 0.321938 13.0402 0.828287 13.3139L7.32956 16.8277C7.75151 17.0574 8.24849 17.0574 8.67044 16.8277L15.1717 13.3139C15.6812 13.0402 16 12.476 16 11.8645V4.25919C16 3.58346 15.6124 2.97869 15.0279 2.74218L8.52667 0.106853C8.1891 -0.0350495 7.81403 -0.0350495 7.47334 0.103474ZM8.00156 2.2016L14.0027 4.63422V4.67138L8.00156 7.30671L2.00039 4.67138V4.63422L8.00156 2.2016ZM9.00176 14.2295V9.19874L14.0027 7.00264V11.5266L9.00176 14.2295Z" fill="white"/>
</svg>
