<svg width="19" height="25" viewBox="0 0 19 25" fill="none" xmlns="http://www.w3.org/2000/svg">
<path d="M9.00684 12.5049C8.7627 11.7236 8.76758 10.2148 8.90918 10.2148C9.31934 10.2148 9.28027 12.0166 9.00684 12.5049ZM8.92383 14.8096C8.54785 15.7959 8.0791 16.9238 7.53711 17.8711C8.43066 17.5293 9.44141 17.0313 10.6084 16.8018C9.98828 16.333 9.39258 15.6592 8.92383 14.8096ZM4.3291 20.9033C4.3291 20.9424 4.97363 20.6396 6.0332 18.9404C5.70605 19.248 4.6123 20.1367 4.3291 20.9033ZM12.2344 7.8125H18.875V23.8281C18.875 24.4775 18.3525 25 17.7031 25H1.29688C0.647461 25 0.125 24.4775 0.125 23.8281V1.17188C0.125 0.522461 0.647461 0 1.29688 0H11.0625V6.64062C11.0625 7.28516 11.5898 7.8125 12.2344 7.8125ZM11.8438 16.2012C10.8672 15.6055 10.2178 14.7852 9.75879 13.5742C9.97852 12.6709 10.3252 11.2988 10.0615 10.4395C9.83203 9.00391 7.99121 9.14551 7.72754 10.1074C7.4834 11.001 7.70801 12.2607 8.12305 13.8672C7.55664 15.2148 6.72168 17.0215 6.13086 18.0566C6.12598 18.0566 6.12598 18.0615 6.12109 18.0615C4.79785 18.7402 2.52734 20.2344 3.45996 21.3818C3.7334 21.7187 4.24121 21.8701 4.50977 21.8701C5.38379 21.8701 6.25293 20.9912 7.49316 18.8525C8.75293 18.4375 10.1348 17.9199 11.3506 17.7197C12.4102 18.2959 13.6504 18.6719 14.4756 18.6719C15.9014 18.6719 15.999 17.1094 15.4375 16.5527C14.7588 15.8887 12.7861 16.0791 11.8438 16.2012V16.2012ZM18.5332 5.12695L13.748 0.341797C13.5283 0.12207 13.2305 0 12.918 0H12.625V6.25H18.875V5.95215C18.875 5.64453 18.7529 5.34668 18.5332 5.12695ZM14.915 17.5928C15.1152 17.4609 14.793 17.0117 12.8252 17.1533C14.6367 17.9248 14.915 17.5928 14.915 17.5928Z" fill="white"/>
</svg>
