<svg width="19" height="25" viewBox="0 0 19 25" fill="none" xmlns="http://www.w3.org/2000/svg">
<path d="M18.75 5.46875V22.6562C18.75 23.9507 17.7007 25 16.4062 25H2.34375C1.04932 25 0 23.9507 0 22.6562V5.46875C0 4.17432 1.04932 3.125 2.34375 3.125H6.25C6.25 1.40186 7.65186 0 9.375 0C11.0981 0 12.5 1.40186 12.5 3.125H16.4062C17.7007 3.125 18.75 4.17432 18.75 5.46875ZM9.375 1.95312C8.72778 1.95312 8.20313 2.47778 8.20313 3.125C8.20313 3.77222 8.72778 4.29688 9.375 4.29688C10.0222 4.29688 10.5469 3.77222 10.5469 3.125C10.5469 2.47778 10.0222 1.95312 9.375 1.95312ZM14.0625 7.51953V6.54297C14.0625 6.46527 14.0316 6.39075 13.9767 6.33581C13.9218 6.28087 13.8472 6.25 13.7695 6.25H4.98047C4.90277 6.25 4.82825 6.28087 4.77331 6.33581C4.71837 6.39075 4.6875 6.46527 4.6875 6.54297V7.51953C4.6875 7.59723 4.71837 7.67175 4.77331 7.72669C4.82825 7.78163 4.90277 7.8125 4.98047 7.8125H13.7695C13.8472 7.8125 13.9218 7.78163 13.9767 7.72669C14.0316 7.67175 14.0625 7.59723 14.0625 7.51953Z" fill="white"/>
<path d="M9.18443 11.3438C7.82351 11.3438 6.94204 11.8547 6.25 12.766C6.12446 12.9313 6.16317 13.158 6.33829 13.2797L7.07379 13.7908C7.25065 13.9137 7.50229 13.8849 7.64075 13.726C8.06784 13.2356 8.38465 12.9533 9.05176 12.9533C9.57629 12.9533 10.2251 13.2627 10.2251 13.7288C10.2251 14.0812 9.90766 14.2621 9.38974 14.5282C8.78578 14.8385 7.98654 15.2247 7.98654 16.1908V16.3438C7.98654 16.5509 8.16975 16.7188 8.39575 16.7188H9.63138C9.85738 16.7188 10.0406 16.5509 10.0406 16.3438V16.2535C10.0406 15.5839 12 15.5382 12 13.726C12 12.3612 10.6317 11.3438 9.18443 11.3438ZM9.01357 17.179C8.36233 17.179 7.8325 17.6646 7.8325 18.2614C7.8325 18.8582 8.36233 19.3438 9.01357 19.3438C9.66481 19.3438 10.1946 18.8582 10.1946 18.2614C10.1946 17.6646 9.66481 17.179 9.01357 17.179Z" fill="#BDACF3"/>
</svg>
