<svg width="16" height="17" viewBox="0 0 16 17" fill="none" xmlns="http://www.w3.org/2000/svg">
<path d="M11.4071 10.6452L8 13.8127L4.59286 10.6452C2.03929 10.7482 0 12.6904 0 15.0876V15.4063C0 16.2862 0.767857 17 1.71429 17H14.2857C15.2321 17 16 16.2862 16 15.4063V15.0876C16 12.6904 13.9607 10.7482 11.4071 10.6452V10.6452ZM0.485714 2.65031L0.714286 2.70011V4.63908C0.464286 4.77853 0.285714 5.0209 0.285714 5.31307C0.285714 5.59196 0.45 5.82437 0.682143 5.96714L0.125 8.03559C0.0642857 8.26468 0.2 8.50041 0.396429 8.50041H1.88929C2.08571 8.50041 2.22143 8.26468 2.16071 8.03559L1.60357 5.96714C1.83571 5.82437 2 5.59196 2 5.31307C2 5.0209 1.82143 4.77853 1.57143 4.63908V2.89268L3.92857 3.42058C3.62143 3.99165 3.42857 4.62912 3.42857 5.31307C3.42857 7.66042 5.475 9.56286 8 9.56286C10.525 9.56286 12.5714 7.66042 12.5714 5.31307C12.5714 4.62912 12.3821 3.99165 12.0714 3.42058L15.5107 2.65031C16.1607 2.50422 16.1607 1.75055 15.5107 1.60446L8.71071 0.0771935C8.24643 -0.0257312 7.75714 -0.0257312 7.29286 0.0771935L0.485714 1.60114C-0.160714 1.74723 -0.160714 2.50422 0.485714 2.65031V2.65031Z" fill="white"/>
</svg>
