<svg width="26" height="21" viewBox="0 0 26 21" fill="none" xmlns="http://www.w3.org/2000/svg">
<path d="M8.14948 14.0662C8.05612 14.0662 7.96276 14.0798 7.8737 14.1087C7.36745 14.2732 6.83502 14.3787 6.27448 14.3787C5.71393 14.3787 5.18151 14.2732 4.67487 14.1087C4.58581 14.0798 4.49284 14.0662 4.39948 14.0662C1.97526 14.0662 0.0115865 16.038 0.0244772 18.4654C0.0299459 19.4912 0.873305 20.3162 1.89948 20.3162H10.6495C11.6756 20.3162 12.519 19.4912 12.5245 18.4654C12.5374 16.038 10.5737 14.0662 8.14948 14.0662ZM6.27448 12.8162C8.34557 12.8162 10.0245 11.1373 10.0245 9.06616C10.0245 6.99507 8.34557 5.31616 6.27448 5.31616C4.20338 5.31616 2.52448 6.99507 2.52448 9.06616C2.52448 11.1373 4.20338 12.8162 6.27448 12.8162ZM23.1495 0.316162H8.14948C7.11549 0.316162 6.27448 1.1853 6.27448 2.25327V4.06616C7.18932 4.06616 8.0362 4.33101 8.77448 4.76147V2.81616H22.5245V14.0662H20.0245V11.5662H15.0245V14.0662H12.0464C12.7924 14.7181 13.3401 15.5791 13.5967 16.5662H23.1495C24.1835 16.5662 25.0245 15.697 25.0245 14.6291V2.25327C25.0245 1.1853 24.1835 0.316162 23.1495 0.316162Z" fill="white"/>
</svg>
