<svg width="17" height="13" viewBox="0 0 17 13" fill="none" xmlns="http://www.w3.org/2000/svg">
<path d="M5.95023 6.49985C7.82827 6.49985 9.35037 5.045 9.35037 3.24992C9.35037 1.45485 7.82827 0 5.95023 0C4.07219 0 2.5501 1.45485 2.5501 3.24992C2.5501 5.045 4.07219 6.49985 5.95023 6.49985ZM8.33033 7.31233H7.88671C7.297 7.5713 6.64088 7.71857 5.95023 7.71857C5.25958 7.71857 4.60612 7.5713 4.01375 7.31233H3.57014C1.59912 7.31233 0 8.84081 0 10.7247V11.781C0 12.4538 0.571116 12.9997 1.27505 12.9997H8.57737C8.51361 12.827 8.48705 12.6442 8.5083 12.4589L8.68893 10.9126L8.72081 10.6308L8.93066 10.4302L10.984 8.46757C10.3332 7.76427 9.39021 7.31233 8.33033 7.31233ZM9.53365 11.0015L9.35302 12.5503C9.3238 12.8093 9.55225 13.0276 9.82054 12.9972L11.4383 12.8245L15.1014 9.32322L13.1968 7.50275L9.53365 11.0015ZM16.8147 6.82738L15.808 5.8651C15.5609 5.62897 15.1572 5.62897 14.9101 5.8651L13.906 6.82484L13.7971 6.92894L15.7044 8.7494L16.8147 7.6881C17.0618 7.44943 17.0618 7.06604 16.8147 6.82738Z" fill="#BDACF3"/>
</svg>
