<svg width="25" height="13" viewBox="0 0 25 13" fill="none" xmlns="http://www.w3.org/2000/svg">
<path d="M1.28978 4C0.718551 4.81679 0.604306 6.35234 4.71716 5.96029C9.85822 5.47021 9.85824 4 9.57262 7.92057C9.28701 11.8411 12.1432 12.8213 13 11.3511" stroke="white"/>
<path d="M24.6704 1.73841L23.2616 0.329589C22.8222 -0.109863 22.1095 -0.109863 21.67 0.329589L20.3447 1.65498L23.3451 4.65543L24.6704 3.33005C25.1099 2.8906 25.1099 2.1781 24.6704 1.73841ZM18.8862 1.25724C18.5201 0.89115 17.9267 0.89115 17.5606 1.25724L14.7768 4.04137C14.6303 4.18786 14.6303 4.42528 14.7768 4.57153L15.3071 5.10192C15.4536 5.2484 15.691 5.2484 15.8375 5.10192L18.2239 2.71552L18.7542 3.24567L15.2021 6.79762C13.9718 8.02801 13.1967 9.64043 13.0042 11.3698L13.0035 11.3752C12.9637 11.7333 13.2663 12.0361 13.6244 11.9965C15.3559 11.8053 16.9707 11.0299 18.2025 9.79807L22.8147 5.18582L20.8748 3.24591L18.8862 1.25724Z" fill="white"/>
<path d="M24.6704 1.73841L23.2616 0.329589C22.8222 -0.109863 22.1095 -0.109863 21.67 0.329589L20.3447 1.65498L23.3451 4.65543L24.6704 3.33005C25.1099 2.8906 25.1099 2.1781 24.6704 1.73841ZM18.8862 1.25724C18.5201 0.89115 17.9267 0.89115 17.5606 1.25724L14.7768 4.04137C14.6303 4.18786 14.6303 4.42528 14.7768 4.57153L15.3071 5.10192C15.4536 5.2484 15.691 5.2484 15.8375 5.10192L18.2239 2.71552L18.7542 3.24567L15.2021 6.79762C13.9718 8.02801 13.1967 9.64043 13.0042 11.3698L13.0035 11.3752C12.9637 11.7333 13.2663 12.0361 13.6244 11.9965C15.3559 11.8053 16.9707 11.0299 18.2025 9.79807L22.8147 5.18582L20.8748 3.24591L18.8862 1.25724Z" fill="white"/>
</svg>
