<svg width="31" height="26" viewBox="0 0 31 26" fill="none" xmlns="http://www.w3.org/2000/svg">
<path d="M30.1229 4.17077L28.8929 5.25622C28.7675 5.36689 28.5743 5.35707 28.4607 5.23426L25.7792 2.33389C25.6657 2.21108 25.6753 2.02231 25.8007 1.91165L27.0307 0.826193C27.5297 0.385888 28.3025 0.425162 28.7568 0.913913L30.2086 2.4843C30.6629 2.97305 30.6245 3.72811 30.1229 4.17077ZM24.7441 2.84406L17.7373 9.02715L17.0451 12.0175C16.9506 12.4211 17.2962 12.7923 17.7166 12.7439L20.832 12.3719L27.8388 6.18876C27.9642 6.0781 27.9738 5.88933 27.8602 5.76652L25.1788 2.86615C25.0627 2.74321 24.8695 2.73339 24.7441 2.84406ZM20.3713 8.60073C20.2384 8.45701 20.2495 8.23844 20.3963 8.10894L24.5053 4.48291C24.6521 4.35341 24.8758 4.36478 25.0086 4.50849C25.1415 4.6522 25.1304 4.87077 24.9836 5.00027L20.8746 8.62631C20.7278 8.75581 20.5041 8.74444 20.3713 8.60073ZM19.3475 10.6429L20.5676 10.7049L20.5218 11.6065L18.8679 11.8039L18.1166 10.9913L18.4853 9.40383L19.4081 9.45073L19.3475 10.6429Z" fill="white"/>
<path d="M8.5 9C3.80546 9 0 12.8055 0 17.5C0 22.1945 3.80546 26 8.5 26C13.1945 26 17 22.1945 17 17.5C17 12.8055 13.1945 9 8.5 9ZM13.9839 16.3861V16.6236C13.9839 16.8248 13.8701 17.0089 13.6901 17.0986L13.1627 17.3626C13.0789 17.4045 12.9855 17.4235 12.892 17.4177C12.7986 17.4118 12.7083 17.3813 12.6304 17.3293L12.0062 16.9132C11.9389 16.8684 11.8622 16.8395 11.7821 16.8287C11.7019 16.818 11.6203 16.8257 11.5435 16.8512L11.4527 16.8814C11.1203 16.9921 10.9845 17.3883 11.1789 17.6799L11.6327 18.3606C11.731 18.5083 11.8969 18.5971 12.0745 18.5971H12.3558C12.6492 18.5971 12.8871 18.835 12.8871 19.1284V19.517C12.8871 19.6319 12.8497 19.7439 12.7808 19.8358L12.1385 20.692C12.0899 20.7571 12.0566 20.8325 12.0416 20.9123L11.8942 21.6948C11.8729 21.8076 11.8157 21.9104 11.731 21.9882C11.4062 22.2856 11.1185 22.6212 10.8742 22.9876L10.4276 23.6577C10.3407 23.788 10.223 23.8948 10.085 23.9687C9.94694 24.0426 9.79278 24.0813 9.63619 24.0813C9.27597 24.0813 8.94659 23.8777 8.7855 23.5556C8.59773 23.18 8.49998 22.7659 8.5 22.346V21.3216C8.5 21.0282 8.26214 20.7903 7.96875 20.7903H7.08173C6.5851 20.7903 6.10903 20.5929 5.75772 20.2419C5.40667 19.8907 5.20943 19.4145 5.20933 18.9179V18.436C5.20933 17.8469 5.48696 17.292 5.95823 16.9382L6.90351 16.2291C7.22765 15.986 7.62186 15.8546 8.02702 15.8545H8.05752C8.34817 15.8545 8.63504 15.922 8.89484 16.0523L9.39935 16.3045C9.52548 16.3676 9.67115 16.3779 9.80482 16.3333L11.4263 15.7928C11.6433 15.7205 11.7896 15.5176 11.7896 15.289C11.7896 14.9956 11.5518 14.7577 11.2584 14.7577H10.9126C10.7717 14.7577 10.6367 14.7019 10.5369 14.6021L10.2997 14.3649C10.2504 14.3156 10.1919 14.2765 10.1274 14.2498C10.0629 14.2231 9.99386 14.2093 9.92409 14.2093H6.8377C6.54431 14.2093 6.30645 13.9715 6.30645 13.6781V13.5273C6.30645 13.2836 6.47234 13.0711 6.70883 13.0118L7.20409 12.8881C7.33228 12.8558 7.44401 12.7774 7.51736 12.6673L7.79429 12.2523C7.89266 12.1046 8.05855 12.0158 8.23609 12.0158H9.06587C9.35925 12.0158 9.59712 11.7779 9.59712 11.4845V10.7408C12.3123 11.1809 14.4932 13.2164 15.1468 15.8548H14.5151C14.2217 15.8548 13.9839 16.0927 13.9839 16.3861Z" fill="white"/>
</svg>
