<svg width="26" height="23" viewBox="0 0 26 23" fill="none" xmlns="http://www.w3.org/2000/svg">
<path d="M25.8096 12.1039L23.0832 9.37799C22.9602 9.25496 22.7934 9.1866 22.6184 9.1866H22.1726C22.9274 8.22146 23.3758 7.00752 23.3758 5.68694C23.3758 2.54545 20.8299 0 17.6879 0C14.5459 0 12 2.54545 12 5.68694C12 8.82843 14.5459 11.3739 17.6879 11.3739C19.0087 11.3739 20.2229 10.9255 21.1882 10.1709V10.6165C21.1882 10.7915 21.2565 10.9583 21.3796 11.0813L24.106 13.8072C24.363 14.0643 24.7787 14.0643 25.033 13.8072L25.8069 13.0335C26.0639 12.7765 26.0639 12.3609 25.8096 12.1039ZM17.6879 9.1866C15.7546 9.1866 14.1877 7.62269 14.1877 5.68694C14.1877 3.75393 15.7518 2.18729 17.6879 2.18729C19.6213 2.18729 21.1882 3.7512 21.1882 5.68694C21.1882 7.61996 19.624 9.1866 17.6879 9.1866Z" fill="white"/>
<path d="M7.47334 6.10347L0.972065 8.73881C0.387576 8.97531 0 9.58346 0 10.2592V17.8645C0 18.4794 0.321938 19.0402 0.828287 19.3139L7.32956 22.8277C7.75151 23.0574 8.24849 23.0574 8.67044 22.8277L15.1717 19.3139C15.6812 19.0402 16 18.476 16 17.8645V10.2592C16 9.58346 15.6124 8.97869 15.0279 8.74218L8.52667 6.10685C8.1891 5.96495 7.81403 5.96495 7.47334 6.10347ZM8.00156 8.2016L14.0027 10.6342V10.6714L8.00156 13.3067L2.00039 10.6714V10.6342L8.00156 8.2016ZM9.00176 20.2295V15.1987L14.0027 13.0026V17.5266L9.00176 20.2295Z" fill="white"/>
</svg>
