<svg width="23" height="26" viewBox="0 0 23 26" fill="none" xmlns="http://www.w3.org/2000/svg">
<path d="M20.6063 6.31151C19.5114 6.29056 18.6151 7.20765 18.6151 8.30287V12.5612H18.2244V3.95716C18.2244 2.86195 17.3282 1.94486 16.2332 1.96581C15.1721 1.98612 14.3182 2.85262 14.3182 3.91859V12.5612H13.9276V2.05287C13.9276 0.957652 13.0313 0.0405619 11.9363 0.0615091C10.8752 0.0818216 10.0213 0.948326 10.0213 2.01429V12.5612H9.63069V4.00599C9.63069 2.91078 8.7344 1.99369 7.63943 2.01463C6.57835 2.03495 5.72444 2.90145 5.72444 3.96742V15.4905L4.17913 13.3655C3.54471 12.4931 2.32322 12.3002 1.45076 12.9347C0.578447 13.5692 0.385576 14.7907 1.02 15.6631L7.15286 24.0959C7.37029 24.3949 7.65536 24.6382 7.98479 24.806C8.31421 24.9737 8.67864 25.0612 9.04832 25.0612H18.6963C19.7839 25.0612 20.7286 24.3129 20.9777 23.2542L22.272 17.7533C22.4376 17.0495 22.5213 16.329 22.5213 15.606V8.26429C22.5213 7.19833 21.6674 6.33182 20.6063 6.31151V6.31151Z" fill="white"/>
</svg>
