<svg width="22" height="25" viewBox="0 0 22 25" fill="none" xmlns="http://www.w3.org/2000/svg">
<path d="M19.96 6.25035C18.865 6.22941 17.9688 7.14649 17.9688 8.24171V12.5H17.5781V3.89601C17.5781 2.80079 16.6818 1.8837 15.5869 1.90465C14.5258 1.92496 13.6719 2.79147 13.6719 3.85743V12.5H13.2813V1.99171C13.2813 0.896494 12.385 -0.0205954 11.29 0.000351894C10.2289 0.0206644 9.375 0.887168 9.375 1.95314V12.5H8.98438V3.94483C8.98438 2.84962 8.08809 1.93253 6.99312 1.95348C5.93203 1.97379 5.07813 2.84029 5.07813 3.90626V15.4293L3.53281 13.3044C2.89839 12.432 1.67691 12.2391 0.804445 12.8735C-0.0678694 13.508 -0.260741 14.7295 0.373683 15.6019L6.50654 24.0348C6.72398 24.3337 7.00905 24.577 7.33847 24.7448C7.66789 24.9126 8.03233 25 8.402 25H18.05C19.1376 25 20.0823 24.2518 20.3314 23.1931L21.6257 17.6921C21.7913 16.9884 21.8749 16.2678 21.875 15.5449V8.20314C21.875 7.13717 21.0211 6.27066 19.96 6.25035V6.25035Z" fill="#FFE073"/>
</svg>
