<svg width="18" height="13" viewBox="0 0 18 13" fill="none" xmlns="http://www.w3.org/2000/svg">
<path d="M17.55 5.28125H15.75V3.65625C15.75 3.43281 15.5475 3.25 15.3 3.25H14.4C14.1525 3.25 13.95 3.43281 13.95 3.65625V5.28125H12.15C11.9025 5.28125 11.7 5.46406 11.7 5.6875V6.5C11.7 6.72344 11.9025 6.90625 12.15 6.90625H13.95V8.53125C13.95 8.75469 14.1525 8.9375 14.4 8.9375H15.3C15.5475 8.9375 15.75 8.75469 15.75 8.53125V6.90625H17.55C17.7975 6.90625 18 6.72344 18 6.5V5.6875C18 5.46406 17.7975 5.28125 17.55 5.28125ZM6.3 6.5C8.28844 6.5 9.9 5.04512 9.9 3.25C9.9 1.45488 8.28844 0 6.3 0C4.31156 0 2.7 1.45488 2.7 3.25C2.7 5.04512 4.31156 6.5 6.3 6.5ZM8.82 7.3125H8.35031C7.72594 7.57148 7.03125 7.71875 6.3 7.71875C5.56875 7.71875 4.87687 7.57148 4.24969 7.3125H3.78C1.69312 7.3125 0 8.84102 0 10.725V11.7812C0 12.4541 0.604688 13 1.35 13H11.25C11.9953 13 12.6 12.4541 12.6 11.7812V10.725C12.6 8.84102 10.9069 7.3125 8.82 7.3125Z" fill="#BDACF3"/>
</svg>
