<svg width="16" height="18" viewBox="0 0 16 18" fill="none" xmlns="http://www.w3.org/2000/svg">
<path d="M14.5994 4.50025C13.7985 4.48517 13.1429 5.14547 13.1429 5.93403V9H12.8572V2.80512C12.8572 2.01657 12.2016 1.35626 11.4007 1.37135C10.6246 1.38597 10 2.00985 10 2.77735V9H9.71431V1.43403C9.71431 0.645476 9.05873 -0.0148287 8.25784 0.000253364C7.48173 0.0148784 6.85716 0.638761 6.85716 1.40626V9H6.57144V2.84028C6.57144 2.05173 5.91587 1.39142 5.11498 1.4065C4.33887 1.42113 3.71429 2.04501 3.71429 2.81251V11.1091L2.58401 9.57913C2.11997 8.95103 1.22654 8.81213 0.588395 9.26895C-0.0496417 9.72577 -0.190713 10.6052 0.273323 11.2334L4.75908 17.305C4.91812 17.5203 5.12663 17.6955 5.36758 17.8163C5.60853 17.937 5.87509 18 6.14548 18H13.2023C13.9978 18 14.6888 17.4613 14.871 16.699L15.8177 12.7383C15.9388 12.2316 16 11.7128 16 11.1923V5.90626C16 5.13876 15.3755 4.51488 14.5994 4.50025V4.50025Z" fill="#FFE600"/>
</svg>
