<svg width="20" height="16" viewBox="0 0 20 16" fill="none" xmlns="http://www.w3.org/2000/svg">
<path d="M18.2104 0.0542288L4.7922 0.812996C4.53801 0.82737 4.2997 0.937945 4.1297 1.1204C3.9597 1.30285 3.87193 1.54223 3.88571 1.78588L4.04156 4.54193L8.83376 4.27094L8.72986 2.43357L14.4805 2.10839L15 11.2952L18.8338 11.0784C19.088 11.0641 19.3263 10.9535 19.4963 10.771C19.6663 10.5886 19.754 10.3492 19.7403 10.1056L19.2208 0.918715C19.207 0.675065 19.0928 0.447104 18.9033 0.284982C18.7138 0.122859 18.4646 0.0398547 18.2104 0.0542288V0.0542288ZM7.11591 3.64807C7.11978 3.71659 7.0951 3.78392 7.04728 3.83523C6.99947 3.88655 6.93245 3.91765 6.86096 3.92169L5.96242 3.9725C5.89093 3.97654 5.82082 3.9532 5.76753 3.9076C5.71424 3.862 5.68212 3.79789 5.67825 3.72936L5.62954 2.8681C5.62567 2.79957 5.65035 2.73224 5.69816 2.68093C5.74598 2.62961 5.813 2.59852 5.88449 2.59447L6.78303 2.54366C6.85452 2.53962 6.92463 2.56296 6.97792 2.60856C7.03121 2.65416 7.06333 2.71827 7.0672 2.7868L7.11591 3.64807ZM17.9964 9.02334C18.0003 9.09186 17.9756 9.15919 17.9278 9.2105C17.88 9.26182 17.813 9.29292 17.7415 9.29696L16.8429 9.34777C16.7714 9.35181 16.7013 9.32847 16.648 9.28287C16.5948 9.23727 16.5626 9.17316 16.5588 9.10463L16.5101 8.24337C16.5062 8.17484 16.5309 8.10752 16.5787 8.0562C16.6265 8.00489 16.6935 7.97379 16.765 7.96974L17.6635 7.91893C17.735 7.91489 17.8051 7.93824 17.8584 7.98383C17.9117 8.02943 17.9438 8.09354 17.9477 8.16207L17.9964 9.02334ZM17.8276 6.03761C17.8315 6.10614 17.8068 6.17347 17.759 6.22478C17.7112 6.2761 17.6441 6.30719 17.5726 6.31124L16.6741 6.36205C16.6026 6.36609 16.5325 6.34275 16.4792 6.29715C16.4259 6.25155 16.3938 6.18744 16.3899 6.11891L16.3412 5.25764C16.3373 5.18912 16.362 5.12179 16.4098 5.07048C16.4577 5.01916 16.5247 4.98806 16.5962 4.98402L17.4947 4.93321C17.5662 4.92917 17.6363 4.95251 17.6896 4.99811C17.7429 5.04371 17.775 5.10782 17.7789 5.17635L17.8276 6.03761ZM17.6588 3.05189C17.6626 3.12042 17.6379 3.18774 17.5901 3.23906C17.5423 3.29037 17.4753 3.32147 17.4038 3.32551L16.5053 3.37632C16.4338 3.38037 16.3637 3.35702 16.3104 3.31143C16.2571 3.26583 16.225 3.20171 16.2211 3.13319L16.1724 2.27192C16.1685 2.20339 16.1932 2.13607 16.241 2.08475C16.2888 2.03344 16.3558 2.00234 16.4273 1.9983L17.3259 1.94749C17.3974 1.94345 17.4675 1.96679 17.5208 2.01239C17.5741 2.05798 17.6062 2.1221 17.61 2.19062L17.6588 3.05189ZM12.7195 4.97283L1.21819 5.62321C0.963994 5.63758 0.725684 5.74816 0.555684 5.93061C0.385684 6.11306 0.297919 6.35244 0.311697 6.59609L0.779243 14.8642C0.793021 15.1079 0.907213 15.3359 1.0967 15.498C1.28618 15.6601 1.53544 15.7431 1.78963 15.7287L13.2909 15.0784C13.5451 15.064 13.7834 14.9534 13.9534 14.771C14.1234 14.5885 14.2112 14.3491 14.1974 14.1055L13.7299 5.83732C13.7161 5.59367 13.6019 5.36571 13.4124 5.20359C13.2229 5.04147 12.9737 4.95846 12.7195 4.97283ZM3.23897 7.35218C3.42853 7.34146 3.61688 7.38486 3.7802 7.47689C3.94353 7.56893 4.07449 7.70546 4.15652 7.86923C4.23856 8.03299 4.26798 8.21664 4.24108 8.39693C4.21417 8.57723 4.13215 8.74609 4.00537 8.88215C3.8786 9.01821 3.71277 9.11536 3.52885 9.16132C3.34494 9.20728 3.1512 9.19999 2.97213 9.14036C2.79307 9.08073 2.63672 8.97144 2.52287 8.82632C2.40901 8.6812 2.34275 8.50676 2.33248 8.32506C2.3187 8.08141 2.40646 7.84203 2.57646 7.65958C2.74646 7.47713 2.98477 7.36655 3.23897 7.35218ZM12.2286 13.2952L2.64417 13.8372L2.59222 12.9185L4.40521 10.9727L5.4156 11.8372L9.04156 7.94568L12.0727 10.5391L12.2286 13.2952Z" fill="white"/>
</svg>
