<svg width="6" height="20" viewBox="0 0 6 20" fill="none" xmlns="http://www.w3.org/2000/svg">
<path d="M3 7.09677C4.65833 7.09677 6 8.39516 6 10C6 11.6048 4.65833 12.9032 3 12.9032C1.34167 12.9032 0 11.6048 0 10C0 8.39516 1.34167 7.09677 3 7.09677ZM0 2.90323C0 4.50806 1.34167 5.80645 3 5.80645C4.65833 5.80645 6 4.50806 6 2.90323C6 1.29839 4.65833 0 3 0C1.34167 0 0 1.29839 0 2.90323ZM0 17.0968C0 18.7016 1.34167 20 3 20C4.65833 20 6 18.7016 6 17.0968C6 15.4919 4.65833 14.1935 3 14.1935C1.34167 14.1935 0 15.4919 0 17.0968Z" fill="#BDACF3"/>
</svg>
