<svg width="18" height="14" viewBox="0 0 18 14" fill="none" xmlns="http://www.w3.org/2000/svg">
<path d="M16.65 0H1.35C0.991958 0 0.64858 0.138281 0.395406 0.384422C0.142232 0.630564 0 0.964403 0 1.3125L0 10.0625C0 10.4106 0.142232 10.7444 0.395406 10.9906C0.64858 11.2367 0.991958 11.375 1.35 11.375H8.1V12.25H3.15C3.03065 12.25 2.91619 12.2961 2.8318 12.3781C2.74741 12.4602 2.7 12.5715 2.7 12.6875V13.5625C2.7 13.6785 2.74741 13.7898 2.8318 13.8719C2.91619 13.9539 3.03065 14 3.15 14H14.85C14.9693 14 15.0838 13.9539 15.1682 13.8719C15.2526 13.7898 15.3 13.6785 15.3 13.5625V12.6875C15.3 12.5715 15.2526 12.4602 15.1682 12.3781C15.0838 12.2961 14.9693 12.25 14.85 12.25H9.9V11.375H16.65C17.008 11.375 17.3514 11.2367 17.6046 10.9906C17.8578 10.7444 18 10.4106 18 10.0625V1.3125C18 0.964403 17.8578 0.630564 17.6046 0.384422C17.3514 0.138281 17.008 0 16.65 0V0ZM16.2 9.625H1.8V1.75H16.2V9.625Z" fill="white"/>
</svg>
