<svg width="19" height="18" viewBox="0 0 19 18" fill="none" xmlns="http://www.w3.org/2000/svg">
<path d="M9.5 0C4.25202 0 0 4.02823 0 9C0 13.9718 4.25202 18 9.5 18C14.748 18 19 13.9718 19 9C19 4.02823 14.748 0 9.5 0ZM12.5645 6.09677C13.2425 6.09677 13.7903 6.61573 13.7903 7.25806C13.7903 7.9004 13.2425 8.41935 12.5645 8.41935C11.8865 8.41935 11.3387 7.9004 11.3387 7.25806C11.3387 6.61573 11.8865 6.09677 12.5645 6.09677ZM6.43548 6.09677C7.11351 6.09677 7.66129 6.61573 7.66129 7.25806C7.66129 7.9004 7.11351 8.41935 6.43548 8.41935C5.75746 8.41935 5.20968 7.9004 5.20968 7.25806C5.20968 6.61573 5.75746 6.09677 6.43548 6.09677ZM9.5 15.3871C7.17863 15.3871 4.34778 13.9972 3.99153 12.0012C3.91492 11.573 4.34778 11.2173 4.78448 11.3516C5.94133 11.7036 7.66129 11.9032 9.5 11.9032C11.3387 11.9032 13.0587 11.7036 14.2155 11.3516C14.6484 11.2173 15.0813 11.573 15.0085 12.0012C14.6522 13.9972 11.8214 15.3871 9.5 15.3871Z" fill="white"/>
</svg>
