<svg width="20" height="19" viewBox="0 0 20 19" fill="none" xmlns="http://www.w3.org/2000/svg">
<path d="M11.5625 14.2493H8.4375C7.91797 14.2493 7.5 13.8522 7.5 13.3585V7.12326H4.07422C3.37891 7.12326 3.03125 6.32529 3.52344 5.85765L9.46484 0.208771C9.75781 -0.0695903 10.2383 -0.0695903 10.5312 0.208771L16.4766 5.85765C16.9688 6.32529 16.6211 7.12326 15.9258 7.12326H12.5V13.3585C12.5 13.8522 12.082 14.2493 11.5625 14.2493ZM20 13.9524V18.1092C20 18.6029 19.582 19 19.0625 19H0.9375C0.417969 19 0 18.6029 0 18.1092V13.9524C0 13.4588 0.417969 13.0616 0.9375 13.0616H6.25V13.3585C6.25 14.5054 7.23047 15.437 8.4375 15.437H11.5625C12.7695 15.437 13.75 14.5054 13.75 13.3585V13.0616H19.0625C19.582 13.0616 20 13.4588 20 13.9524ZM15.1562 17.2185C15.1562 16.8102 14.8047 16.4762 14.375 16.4762C13.9453 16.4762 13.5938 16.8102 13.5938 17.2185C13.5938 17.6268 13.9453 17.9608 14.375 17.9608C14.8047 17.9608 15.1562 17.6268 15.1562 17.2185ZM17.6562 17.2185C17.6562 16.8102 17.3047 16.4762 16.875 16.4762C16.4453 16.4762 16.0938 16.8102 16.0938 17.2185C16.0938 17.6268 16.4453 17.9608 16.875 17.9608C17.3047 17.9608 17.6562 17.6268 17.6562 17.2185Z" fill="white"/>
</svg>
